<?xml version="1.0" encoding="utf-8"?>
<!-- Generator: Adobe Illustrator 26.1.0, SVG Export Plug-In . SVG Version: 6.00 Build 0)  -->
<svg version="1.1" id="Layer_1" xmlns:xodm="http://www.corel.com/coreldraw/odm/2003"
	 xmlns="http://www.w3.org/2000/svg" xmlns:xlink="http://www.w3.org/1999/xlink" x="0px" y="0px" viewBox="0 0 430.6 154.1"
	 style="enable-background:new 0 0 430.6 154.1;" xml:space="preserve">
<style type="text/css">
	.st0{fill-rule:evenodd;clip-rule:evenodd;fill:#EB3438;}
	.st1{fill-rule:evenodd;clip-rule:evenodd;fill:#FEFEFE;}
	.st2{fill:#EB3438;}
	.st3{fill:none;}
	.st4{fill:none;stroke:#EB3438;stroke-width:0.5;stroke-miterlimit:10;}
</style>
<g>
	<g id="_1692203694304">
		<path class="st0" d="M7.5,72.8v5.9c0,5.9,2,15,4.1,20.3c1.5,3.8,3.1,7.5,5.2,11c0.5,0.9,1.1,1.6,1.6,2.5c0.3,0.5,0.5,0.7,0.8,1.2
			c1.5,2.3,3.5,4.9,5.4,6.8c0.4,0.4,0.6,0.6,1,1.1c0.5,0.7,1.4,1.4,2,2.1c1.5,1.5,4.8,4.3,6.5,5.6c1.5,1.2,3.1,2.4,4.8,3.4
			c3.4,2,4.4,2.5,8,4.3c0.9,0.4,1.8,0.8,2.8,1.2c0.5,0.2,1,0.4,1.5,0.6c2.6,1,5,1.8,7.8,2.4c6.9,1.5,10.6,1.9,17.9,1.9
			c8.7,0,16.7-2.1,24.4-5.2c1-0.4,2-0.8,3-1.3c2.1-1,3.4-1.6,5.5-2.9c0.5-0.3,0.8-0.5,1.3-0.7c2.2-1.3,4.3-2.8,6.3-4.4l2.3-2
			c0.8-0.6,1.4-1.4,2.1-2.1c0.5-0.5,0.7-0.5,1.1-1.1c0.3-0.4,0.7-0.7,1.1-1.1l2-2.2c1.7-1.8,4.3-5.2,5.5-7.3
			c0.6-0.9,1.1-1.7,1.6-2.6l1.6-2.6c1-1.9,1.9-3.8,2.7-5.8c1.6-4.1,3.1-8.3,4.4-12.6c1-3.4,1.9-7.1,2-10.8c0-1.4,0.3-2.5,0.3-4.1
			c0-5.9-0.5-11.8-1.9-17.4c-1.5-6-3.5-11.1-6.3-16.2c-0.3-0.5-0.5-0.8-0.8-1.3c-1.4-2.6-3.2-5-5-7.4c-0.3-0.4-0.6-0.7-0.9-1.1
			l-4.8-5.3c-1.2-1-2.1-2.1-3.3-3c-4.3-3.5-8.5-6.6-13.5-9.1c-4.5-2.2-8.5-3.8-13.4-5.1c-0.5-0.1-1.1-0.3-1.7-0.4
			c-5.5-1.5-11.3-2-17.1-2c-4.9,0-10.4,0.8-15,1.8c-2.8,0.6-5.5,1.5-8.1,2.4c-4,1.4-7.7,3.4-11.3,5.5c-3.8,2.3-6.4,4.3-9.8,7
			l-5.4,5.2c-3.4,3.4-8.3,10.6-10.4,14.8c-0.2,0.5-0.5,0.8-0.7,1.3c-1.6,2.8-3.2,7.5-4.2,10.6C8.9,59.6,7.5,67.6,7.5,72.8L7.5,72.8z
			"/>
		<path class="st0" d="M2.7,65.1c0.4-0.3,0.4-1.1,0.5-1.6c1.7-7.4,2-10.2,5.2-17.6c2.3-5.5,6-11.1,9.5-15.7c1.2-1.6,2.5-3,3.9-4.4
			c0.4-0.4,0.5-0.7,1-1.1c0.4-0.4,0.7-0.7,1.1-1.1c1.7-1.7,5-4.5,6.7-5.8c0.4-0.3,0.8-0.6,1.2-0.9l9-5.6c3.8-1.9,7.6-3.7,11.7-5
			c4.3-1.4,9-2.5,13.7-3c6.9-0.8,14.2-0.6,21,0.5c5.7,0.9,11.9,2.7,17,5.2c2.1,1,3.9,1.9,5.8,3c3.1,1.8,7.7,4.7,10.5,7.2
			c1.6,1.4,3.2,2.7,4.7,4.2c1.5,1.5,2.8,2.9,4.2,4.6c1.7,2,3.3,4.1,4.8,6.3c4,6,7.4,12.5,9.3,19.5c1.1,4,2.7,11,2.6,15.1l0.2,4.3
			c0.3,1.6-0.3,6.5-0.5,8.2c-0.9,8.3-3.2,16.6-7,24c-0.5,1-0.9,2-1.5,2.9c-0.6,1-1.1,1.9-1.6,2.8c-3,5-6.9,9.3-10.9,13.5l-2.3,2
			c-2.4,2.3-6.1,5-8.9,6.7c-7.6,4.6-13.4,7.1-21.9,9.3c-2.4,0.6-5,1.1-7.5,1.3c-9.3,0.9-15.4,0.5-24.3-1.2c-2.3-0.5-4.7-1.1-6.9-1.9
			c-6.3-2.1-12.4-5-17.8-8.6c-4.4-2.9-8.9-6.6-12.5-10.5l-2.1-2.4c-2-2.1-3.6-4.5-5.3-6.8c-1.9-2.6-3.4-5.5-4.9-8.4
			c-2-3.9-3.6-8.2-4.9-12.7c-1-3.4-1.7-7.2-2.4-10.7l-0.6-2.7c-0.1-0.4-0.2-0.5-0.3-0.8H2c-0.4,1.9-0.5,1.7-0.5,3.8
			c0,1.4,0.7,6.4,0.9,8c0.7,3.9,1.4,7.3,2.6,10.9c1.5,4.4,3.3,8.6,5.7,12.5c2,3.3,4.2,6.3,6.5,9.3l8.3,8.7c2.3,1.9,4.5,3.9,7,5.5
			c9.9,6.6,20.6,10.9,32.7,12.6c0.7,0.1,1.3,0.1,2.1,0.2c1.4,0.2,7.4,0.5,8.5,0.4c0.7-0.1,1.5,0,2.3,0c1.3,0,2.9-0.2,4.2-0.3
			c1.3-0.1,2.8-0.3,4.1-0.5c7.6-1.3,14-3.1,20.9-6.2c3-1.3,6-3,8.7-4.8l6.6-4.8c3.8-3,7.2-6.5,10.3-10.1c1.4-1.6,2.6-3.4,3.9-5.1
			c0.6-0.9,1.2-1.8,1.8-2.7c0.6-0.9,1.2-1.9,1.7-2.9l1.6-2.9c2.3-4.7,4.4-9.6,5.8-14.6c1.5-5.3,2.3-10.9,2.5-16.6v-5.4
			c-0.4-10-2.7-19.9-6.8-28.6c-2.9-6-6.3-11.4-10.6-16.5c-0.4-0.4-0.6-0.7-1-1.2c-0.6-0.8-3.5-3.8-4.4-4.6l-6-5.2
			c-0.9-0.7-1.7-1.3-2.6-2c-4.1-2.8-8.4-5.4-13-7.3c-3.9-1.6-7.8-3-11.8-4c-3.3-0.8-8.1-1.7-11.7-1.8c-0.6,0-0.6-0.1-1-0.1
			c-0.7-0.1-1.5-0.1-2.2-0.1H73c-8.1,0.3-16.5,1.9-23.3,4.6c-1.1,0.4-2.1,0.8-3.1,1.2c-5.7,2.3-11.3,5.8-16.1,9.5
			c-0.4,0.3-0.8,0.6-1.2,0.9c-0.4,0.4-0.8,0.7-1.2,1c-1.6,1.2-3,2.7-4.5,4.1l-4.1,4.5c-0.3,0.4-0.6,0.8-1,1.2
			c-2.6,3-5.9,7.9-7.7,11.5c-2.7,5.4-4.2,9.3-6.1,15.2C3.8,57,2.7,62.2,2.7,65.1L2.7,65.1z"/>
		<path class="st1" d="M61.1,85.3c1.2-1.4,6.4-9.9,7.4-11.5c2.2-3.7,4.7-8.4,6.2-12.9c2.1-6.1,1.7-10.3-1.5-15.1
			c-2.2-3.3-6.4-6.8-12.3-6.8c-2.9,0-5.5,0.6-7.5,1.9c-2,1.2-3.6,2.8-4.8,4.7c-2.8,4.4-3.4,10-1.4,15.4c1.6,4.4,4,9.1,6.2,12.8
			C55,76.4,59.2,83.7,61.1,85.3L61.1,85.3z"/>
		<path class="st0" d="M61,81.5c0.8-0.8,5.8-9,6.4-10.1c1.9-3.3,4-7.2,5.3-11.1c1.7-5.1,1.7-8.8-1-13c-3.6-5.6-11.4-7.9-17.1-4.3
			c-5.7,3.5-7.5,10.6-5.2,17.3c1.3,3.8,3.5,7.8,5.3,11.1C55.5,73.1,60.2,81,61,81.5L61,81.5z"/>
		<polygon class="st1" points="25.7,79.6 41.2,79.6 41.2,74.2 31.4,74.2 31.4,62.8 39.2,62.7 39.2,57.4 31.5,57.3 31.4,47.5 
			41.2,47.4 41.2,42 25.7,42 		"/>
		<path class="st1" d="M81.1,47.4l10,0L80.7,74.3c-0.2,1,0,4.1,0,5.3c3.9,0.2,12.2,0,16.6,0l0-5.4c-3,0-7.7,0.1-10.5,0
			c1.5-4.4,10.5-26.1,10.5-27.3l0-4.9l-16.1,0C81.1,42,81.1,47.4,81.1,47.4z"/>
		<path class="st1" d="M112.6,79.6l5.7,0.1c0-1.6-0.1-15.5,0.1-16.4c1.1-3.7,2.8-8.7,4-12.7c0.5-1.6,2.5-7.5,2.7-8.5l-5.4,0
			c-0.5,0.7-1.6,5.6-2,6.8c-0.3,1.2-0.6,2.3-1,3.5c-0.3,0.9-0.6,2.7-1,3.4l-3.9-13.8l-6,0c0.2,1.1,2.1,6.8,2.6,8.4l4,12.6
			C112.8,64.3,112.6,77.6,112.6,79.6z"/>
		<path class="st1" d="M59.7,44.6c-4.8,0.7-8.9,5.1-8.1,10.8c0.7,4.9,5.1,9.1,10.9,8.3c4.8-0.7,8.9-5.2,8.1-10.9
			C70,47.9,65.4,43.7,59.7,44.6L59.7,44.6z"/>
		<path class="st0" d="M74.8,150.9c-10.2,0-17-1.7-25.9-4.1c-2.1-0.6-5.9-2.2-7.9-2.2c0.6,2.4,12,5.8,13.7,6.3
			c2.7,0.8,5.4,1.2,8.3,1.7c2.7,0.5,5.3,0.4,6.8,0.7c0.1,0,0.3,0.1,0.5,0.1c0.4,0,1.1,0.1,1.8,0.1h5c0.9,0,1.6-0.1,2-0.1l4.5-0.4
			c1.9-0.2,3.8-0.5,5.5-0.9c4.3-0.9,8.5-1.9,12.5-3.5c6.3-2.5,5.8-2.5,11-5.1l6-3.7c1.7-1.2,3.8-2.8,5.5-4.1c0.6-0.5,1.1-1,1.7-1.5
			c0.4-0.3,0.5-0.4,0.8-0.7c0.3-0.3,0.5-0.4,0.9-0.8l6.3-6.6c1.8-1.8,5.5-7.1,6.8-9.3c0.4-0.7,1.1-1.5,1.1-2.2l-4.1,5.5
			c-0.5,0.6-0.9,1.2-1.5,1.8l-1.5,1.7c-0.3,0.4-0.4,0.5-0.7,0.8l-7.4,7.2l-8.2,6.2c-0.4,0.2-0.7,0.4-1,0.7c-0.7,0.4-1.4,0.8-2.1,1.3
			c-8.3,5-16.2,7.7-25.7,9.6C85.4,150.4,79.1,150.9,74.8,150.9L74.8,150.9z"/>
		<path class="st1" d="M69.4,114l3.5,0l0-15.5c0.6,0.7,4,13.9,4.8,15.4l4,0l0-21.5l-3.5,0l0,12.7l-3.9-12.7l-4.9,0L69.4,114
			L69.4,114z"/>
		<path class="st1" d="M94.4,114.3c3.7,0,6-1.6,6-5.5l0-16.4l-3.8,0l0,16.6c0,1.4-0.6,2.2-2.1,2.1c-1.5,0-1.9-0.9-1.9-2.4V92.5
			l-3.9,0c0,4.6,0,9.2,0,13.8c0,2.2-0.2,4.3,0.9,5.9C90.5,113.5,92.1,114.3,94.4,114.3L94.4,114.3z"/>
		<path class="st1" d="M19.7,87.2c-0.8,0.3-1.1,1.4,0.8,1.4l92.8,0c1.8,0,13,0.2,13.7-0.1c0.5-0.2,0.6-0.7,0.4-1.1
			c-0.2-0.4-0.8-0.3-1.3-0.3c-17.1,0.1-34.4,0-51.5,0C69.5,87.2,20.2,87,19.7,87.2L19.7,87.2z"/>
		<path class="st1" d="M37,114c0.3,0,4.9,0.1,5.2-0.1c0.2-0.4,3.5-19.4,3.8-21.4l-3.6,0c-0.3,2-2.3,15.9-2.6,16.5l-2.6-16.5l-4,0
			L37,114L37,114z"/>
		<path class="st1" d="M52.2,114l10.7,0l0-3.1l-6.8,0v-6.6l5.3,0c0.1-0.9,0.1-2.1,0.1-3.1l-5.3,0l-0.1-5.7l6.8,0l0-3.1l-10.7,0
			L52.2,114L52.2,114z"/>
		<path class="st1" d="M107.6,114l10.7,0l0-3.1l-6.8,0l0-6.6l5.3,0c0.1-0.9,0.1-2.1,0.1-3.1l-5.3,0l-0.1-5.7l6.8,0l0-3.1l-10.7,0
			L107.6,114L107.6,114z"/>
		<path class="st0" d="M59.9,47.6c-3.3,0.7-6.2,3.7-5.3,7.8c0.7,3.2,3.8,6,7.9,5.2c3.2-0.6,6-3.8,5.2-7.8
			C67,49.6,63.9,46.8,59.9,47.6L59.9,47.6z"/>
	</g>
	<polygon class="st2" points="192.8,73.1 173.3,73.1 173.3,38.5 192,38.5 192,43.4 179.1,43.4 179.1,53.2 191,53.2 191,58 179.1,58 
		179.1,68.3 192.8,68.3 	"/>
	<path id="_1" class="st2" d="M217.3,73.1h-5.4v-3.9h-0.1c-1.7,3-4.2,4.4-7.5,4.4c-2.4,0-4.3-0.7-5.7-2c-1.4-1.3-2.1-3.1-2.1-5.2
		c0-4.7,2.7-7.4,8.1-8.2l7.3-1c0-3.5-1.7-5.3-5-5.3c-2.9,0-5.6,1-8,3.1v-4.9c2.6-1.5,5.6-2.3,9-2.3c6.2,0,9.4,3.1,9.4,9.2
		L217.3,73.1L217.3,73.1z M211.9,61l-5.2,0.7c-1.6,0.2-2.8,0.6-3.6,1.2c-0.8,0.6-1.2,1.6-1.2,3c0,1,0.4,1.9,1.1,2.6
		c0.8,0.7,1.8,1,3,1c1.7,0,3.1-0.6,4.2-1.8c1.1-1.2,1.7-2.7,1.7-4.5L211.9,61L211.9,61z"/>
	<polygon id="_2" class="st2" points="242.4,50.7 229,68.8 242.3,68.8 242.3,73.1 221.2,73.1 221.2,71 234.8,52.8 222.5,52.8 
		222.5,48.4 242.4,48.4 	"/>
	<path id="_3" class="st2" d="M268.5,48.4l-11.2,28.7c-2.3,5.1-5.6,7.7-9.8,7.7c-1.2,0-2.2-0.1-2.9-0.3v-4.7
		c0.9,0.3,1.7,0.4,2.4,0.4c2.1,0,3.7-1,4.7-3.1l1.7-4.1l-9.8-24.7h6.2l5.9,18c0.1,0.2,0.2,0.8,0.4,1.8h0.1c0.1-0.4,0.2-0.9,0.4-1.7
		l6.2-18H268.5z"/>
	<path id="_4" class="st2" d="M313.6,38.5l-12.4,34.6h-6.4l-12.2-34.6h6.3l8.6,26.3c0.3,0.8,0.5,1.8,0.6,2.9h0.1
		c0.1-0.9,0.3-1.9,0.7-3l8.7-26.2L313.6,38.5L313.6,38.5z"/>
	<path id="_5" class="st2" d="M335.4,62.3h-16.9c0.1,2.3,0.8,4,2.1,5.3c1.3,1.2,3.2,1.9,5.5,1.9c2.6,0,5.1-0.8,7.3-2.4v4.5
		c-2.3,1.4-5.2,2.1-8.9,2.1c-3.6,0-6.5-1.1-8.6-3.4c-2.1-2.3-3.1-5.4-3.1-9.5c0-3.9,1.1-7,3.4-9.4c2.3-2.4,5.1-3.6,8.5-3.6
		c3.4,0,6,1.1,7.9,3.3c1.8,2.2,2.8,5.2,2.8,9.1L335.4,62.3L335.4,62.3z M330,58.3c0-2-0.5-3.6-1.4-4.7c-0.9-1.1-2.2-1.7-3.9-1.7
		c-1.6,0-3,0.6-4.1,1.8c-1.1,1.2-1.8,2.7-2.1,4.6C318.5,58.3,330,58.3,330,58.3z"/>
	<path id="_6" class="st2" d="M362.7,73.1h-5.6V59.2c0-4.6-1.6-6.9-4.9-6.9c-1.7,0-3.1,0.6-4.2,1.9c-1.1,1.3-1.7,2.9-1.7,4.8v14.1
		h-5.6V48.4h5.6v4.1h0.1c1.8-3.1,4.5-4.7,8-4.7c2.7,0,4.7,0.9,6.2,2.6c1.4,1.7,2.1,4.3,2.1,7.6L362.7,73.1L362.7,73.1z"/>
	<path id="_7" class="st2" d="M391.2,73.1h-5.6v-3.9h-0.1c-1.6,3-4.2,4.5-7.6,4.5c-5.8,0-8.8-3.5-8.8-10.5V48.4h5.6v14.2
		c0,4.4,1.7,6.7,5.1,6.7c1.7,0,3-0.6,4.1-1.8c1.1-1.2,1.6-2.8,1.6-4.8V48.4h5.6V73.1L391.2,73.1z"/>
	<path id="_8" class="st2" d="M419.4,62.3h-16.9c0.1,2.3,0.8,4,2.1,5.3c1.3,1.2,3.2,1.9,5.5,1.9c2.6,0,5.1-0.8,7.3-2.4v4.5
		c-2.3,1.4-5.2,2.1-8.9,2.1c-3.6,0-6.5-1.1-8.6-3.4c-2.1-2.3-3.1-5.4-3.1-9.5c0-3.9,1.1-7,3.4-9.4c2.3-2.4,5.1-3.6,8.5-3.6
		c3.4,0,6,1.1,7.9,3.3c1.8,2.2,2.8,5.2,2.8,9.1L419.4,62.3L419.4,62.3z M414,58.3c0-2-0.5-3.6-1.4-4.7c-0.9-1.1-2.2-1.7-3.9-1.7
		c-1.6,0-3,0.6-4.1,1.8c-1.1,1.2-1.8,2.7-2.1,4.6C402.5,58.3,414,58.3,414,58.3z"/>
	<path class="st2" d="M179.3,110.8h-1.5l-6.1-16.7h1.7l4.7,13.4c0.1,0.3,0.2,0.5,0.2,0.8c0.1,0.3,0.1,0.5,0.2,0.8h0
		c0-0.2,0.1-0.5,0.2-0.7c0.1-0.3,0.2-0.5,0.3-0.8l4.9-13.3h1.7L179.3,110.8L179.3,110.8z"/>
	<polygon id="_1_0" class="st2" points="190.9,110.8 190.9,94.1 199,94.1 199,95.5 192.4,95.5 192.4,101.6 198.6,101.6 198.6,103 
		192.4,103 192.4,109.4 199.4,109.4 199.4,110.8 	"/>
	<path id="_2_1" class="st2" d="M217.1,110.8l-9.3-13.4c-0.1-0.2-0.2-0.3-0.3-0.5c-0.1-0.2-0.2-0.4-0.3-0.5h-0.1c0,0.1,0,0.3,0,0.6
		c0,0.2,0,0.6,0,0.9v13h-1.6V94.1h1.7l9.1,13.3c0.1,0.2,0.3,0.4,0.4,0.6c0.1,0.2,0.2,0.4,0.3,0.5h0.1c0-0.3-0.1-0.5-0.1-0.9
		c0-0.3,0-0.7,0-1.1V94.1h1.6v16.7L217.1,110.8L217.1,110.8z"/>
	<path id="_3_2" class="st2" d="M237.6,104.1c0,4.7-2.1,7-6.2,7c-3.9,0-5.9-2.2-5.9-6.7V94.1h1.6v10.1c0,1.8,0.4,3.2,1.1,4.1
		c0.7,0.9,1.9,1.4,3.4,1.4c2.9,0,4.4-1.8,4.4-5.3V94.1h1.6L237.6,104.1L237.6,104.1z"/>
	<polygon id="_4_3" class="st2" points="244.4,110.8 244.4,94.1 252.6,94.1 252.6,95.5 246,95.5 246,101.6 252.1,101.6 252.1,103 
		246,103 246,109.4 252.9,109.4 252.9,110.8 	"/>
	<path id="_5_4" class="st2" d="M258.5,108.3c0.3,0.2,0.6,0.4,0.9,0.6c0.3,0.2,0.7,0.3,1,0.4c0.4,0.1,0.7,0.2,1.1,0.3
		c0.4,0.1,0.7,0.1,1,0.1c1.3,0,2.2-0.2,2.8-0.7c0.6-0.5,0.9-1.2,0.9-2.1c0-0.4-0.1-0.8-0.2-1.2c-0.1-0.3-0.4-0.6-0.7-0.9
		c-0.3-0.3-0.7-0.6-1.2-0.9c-0.5-0.3-1-0.6-1.7-1c-0.7-0.4-1.3-0.8-1.8-1.1c-0.5-0.3-0.9-0.7-1.2-1.1c-0.3-0.4-0.6-0.8-0.7-1.2
		c-0.2-0.4-0.2-0.9-0.2-1.4c0-0.7,0.1-1.3,0.4-1.8c0.3-0.5,0.7-1,1.2-1.4c0.5-0.4,1.1-0.7,1.7-0.9c0.7-0.2,1.4-0.3,2.1-0.3
		c1.3,0,2.4,0.2,3.3,0.5V96c-1-0.6-2.1-0.9-3.5-0.9c-0.5,0-1,0.1-1.4,0.2c-0.4,0.1-0.8,0.3-1.2,0.5c-0.3,0.2-0.6,0.5-0.8,0.9
		c-0.2,0.3-0.3,0.7-0.3,1.2c0,0.4,0.1,0.8,0.2,1.1c0.1,0.3,0.3,0.6,0.6,0.9c0.3,0.3,0.7,0.6,1.1,0.8c0.5,0.3,1,0.6,1.7,1
		c0.7,0.4,1.3,0.7,1.8,1.1c0.5,0.4,1,0.7,1.3,1.1c0.3,0.4,0.6,0.8,0.8,1.2c0.2,0.4,0.3,0.9,0.3,1.4c0,0.7-0.1,1.4-0.4,1.9
		c-0.3,0.6-0.7,1-1.1,1.4c-0.5,0.4-1.1,0.6-1.7,0.8c-0.7,0.2-1.4,0.3-2.2,0.3c-0.3,0-0.6,0-0.9-0.1c-0.4,0-0.7-0.1-1.1-0.2
		c-0.4-0.1-0.7-0.2-1.1-0.3c-0.3-0.1-0.6-0.2-0.8-0.4L258.5,108.3L258.5,108.3z"/>
	<path id="_6_5" class="st2" d="M295.8,104.1c0,4.7-2.1,7-6.2,7c-3.9,0-5.9-2.2-5.9-6.7V94.1h1.6v10.1c0,1.8,0.4,3.2,1.1,4.1
		c0.7,0.9,1.9,1.4,3.4,1.4c2.9,0,4.4-1.8,4.4-5.3V94.1h1.6L295.8,104.1L295.8,104.1z"/>
	<path id="_7_6" class="st2" d="M314.1,110.8l-9.3-13.4c-0.1-0.2-0.2-0.3-0.3-0.5c-0.1-0.2-0.2-0.4-0.3-0.5h-0.1c0,0.1,0,0.3,0,0.6
		c0,0.2,0,0.6,0,0.9v13h-1.6V94.1h1.7l9.1,13.3c0.1,0.2,0.3,0.4,0.4,0.6c0.1,0.2,0.2,0.4,0.3,0.5h0.1c0-0.3-0.1-0.5-0.1-0.9
		c0-0.3,0-0.7,0-1.1V94.1h1.6v16.7L314.1,110.8L314.1,110.8z"/>
	<polygon id="_8_7" class="st2" points="322.7,110.8 322.7,94.1 324.3,94.1 324.3,109.4 331,109.4 331,110.8 	"/>
	<polygon id="_9" class="st2" points="338.1,110.8 336.5,110.8 336.5,94.1 338.1,94.1 	"/>
	<path id="_10" class="st2" d="M359.9,110.8V99.2c0-0.6,0-1.5,0.1-2.9h0c-0.1,0.4-0.2,0.7-0.3,0.9c-0.1,0.3-0.2,0.5-0.3,0.6
		l-5.8,12.9H353L347.2,98c-0.2-0.4-0.3-0.9-0.5-1.6h0c0,0.4,0.1,0.8,0.1,1.2c0,0.5,0,1,0,1.5v11.7h-1.5V94.1h1.8l5.7,12.6
		c0.1,0.3,0.2,0.5,0.3,0.8c0.1,0.3,0.2,0.6,0.3,0.9h0.1c0.1-0.3,0.2-0.6,0.3-0.9c0.1-0.3,0.2-0.5,0.3-0.8l5.7-12.6h1.7v16.7
		L359.9,110.8L359.9,110.8z"/>
	<polygon id="_11" class="st2" points="370.1,110.8 368.5,110.8 368.5,94.1 370.1,94.1 	"/>
	<polygon id="_12" class="st2" points="381.9,95.5 381.9,110.8 380.4,110.8 380.4,95.5 375.6,95.5 375.6,94.1 386.8,94.1 
		386.8,95.5 	"/>
	<polygon id="_13" class="st2" points="392.2,110.8 392.2,94.1 400.4,94.1 400.4,95.5 393.8,95.5 393.8,101.6 399.9,101.6 
		399.9,103 393.8,103 393.8,109.4 400.8,109.4 400.8,110.8 	"/>
	<path id="_14" class="st2" d="M407,110.8V94.1h4.4c2.9,0,5,0.7,6.5,2.1c1.5,1.4,2.2,3.4,2.2,6.1c0,1.3-0.2,2.5-0.6,3.5
		c-0.4,1.1-1,2-1.8,2.7c-0.8,0.7-1.7,1.3-2.8,1.7c-1.1,0.4-2.3,0.6-3.7,0.6L407,110.8L407,110.8z M408.5,95.5v13.9h2.6
		c1.2,0,2.2-0.2,3.1-0.5c0.9-0.3,1.7-0.8,2.3-1.4c0.6-0.6,1.1-1.3,1.4-2.2c0.3-0.9,0.5-1.9,0.5-3.1c0-4.5-2.4-6.8-7.2-6.8
		L408.5,95.5L408.5,95.5z"/>
	<rect x="0" class="st3" width="430.6" height="154.1"/>
	<g>
		<g>
			<path class="st2" d="M421.5,38.8h-1.4V43h-0.8v-4.2h-1.4v-0.7h3.6V38.8z"/>
			<path class="st2" d="M427.6,43h-0.8v-3.1c0-0.1,0-0.3,0-0.5s0-0.3,0-0.5h0c0,0.1-0.1,0.2-0.1,0.3c0,0.1,0,0.2-0.1,0.2l-1.4,3.6
				h-0.6l-1.4-3.5c0,0,0-0.1-0.1-0.2c0-0.1-0.1-0.2-0.1-0.4h0c0,0.2,0,0.3,0,0.5c0,0.2,0,0.4,0,0.6v3h-0.8v-4.9h1.2l1.3,3.2
				c0.1,0.1,0.1,0.2,0.1,0.3s0.1,0.2,0.1,0.3h0c0-0.1,0.1-0.3,0.1-0.4s0.1-0.2,0.1-0.3l1.3-3.2h1.1V43z"/>
		</g>
		<circle class="st4" cx="423" cy="40.7" r="7.3"/>
	</g>
</g>
</svg>
