<?xml version="1.0" encoding="utf-8"?>
<svg xmlns="http://www.w3.org/2000/svg" width="480" height="472" viewBox="0 0 480 472" fill="none">
<g clip-path="url(#clip0_3766_7805)">
<rect width="480" height="472" transform="translate(-0.178711)" fill="#FFCDDA"/>
<path opacity="0.5" fill-rule="evenodd" clip-rule="evenodd" d="M-3075.86 777.511C-3193.22 762.682 -3220.19 633.194 -3197.62 549.123C-3166.77 434.196 -3021.3 382.388 -2900.43 367.405C-2862.94 362.762 -2822.87 362.039 -2784.77 368.194C-2761.56 359.081 -2736.93 352.452 -2713.56 347.157C-2544.14 308.773 -2365.14 294.533 -2190.44 298.501C-1849.29 306.215 -1522.23 396.74 -1202.62 493.495C-1173.22 502.392 -1143.85 511.346 -1114.47 520.299C-983.931 560.087 -853.378 599.879 -720.982 634.753C-554.622 678.551 -383.198 718.121 -208.626 723.053C-54.052 727.429 104.692 701.877 237.142 629.413C358.317 563.104 453.41 455.891 468.599 329.133C482.47 213.316 410.693 99.1677 291.22 47.6192C254.618 31.8359 213.126 21.3198 170.862 17.5173C168.915 45.0343 164.334 72.5117 156.515 99.8353C140.432 156.056 109.585 211.907 51.2527 243.207C3.64185 268.759 -62.9873 270.687 -93.0254 222.662C-118.937 181.237 -110.725 121.048 -89.4939 79.4753C-66.4333 34.3426 -22.78 2.67188 29.1277 -15.8337C70.459 -30.5399 114.935 -35.9846 159.105 -33.6087C154.039 -109.844 126.162 -188.061 101.969 -255.442C57.0818 -380.456 10.0242 -517.412 40.9988 -653.96C64.5701 -757.947 139.751 -863.306 269.265 -879.994C386.483 -895.088 511.147 -834.454 565.735 -744.151C624.706 -646.543 607.474 -517.597 544.929 -424.661C516.261 -382.078 477.305 -345.424 430.759 -317.613V-367.023C523.789 -423.734 602.177 -525.994 586.413 -626.702C569.352 -735.696 462.26 -813.352 345.084 -829.484C216.506 -847.211 109.755 -775.377 66.1016 -672.984C16.1047 -555.674 60.4917 -433.448 102.12 -318.818C105.801 -308.682 109.461 -298.605 113.031 -288.596C142.53 -205.984 168.353 -119.503 171.624 -32.7262C237.092 -27.02 301.164 -4.36383 352.53 30.5228C456.303 101.022 489.831 218.805 481.576 328.837C472.684 447.287 411.543 556.392 307.941 633.64C60.3579 818.214 -288.105 786.617 -580.576 719.715C-762.191 678.158 -939.287 624.145 -1116.4 570.127C-1246.7 530.385 -1377.01 490.641 -1509.13 455.854C-1664.94 414.837 -1823.55 380.719 -1985.11 362.51C-2153.59 343.522 -2324.51 343.003 -2493.08 361.472C-2563.88 369.21 -2635.91 378.863 -2705.24 394.71C-2665.18 418.202 -2643.73 454.99 -2642.93 499.28C-2641.99 551.496 -2666.46 604.491 -2723.3 627.818C-2780.15 651.145 -2843.24 624.258 -2871.92 578.383C-2900.6 532.509 -2899.53 471.541 -2869.41 428.262C-2865.91 423.23 -2862.02 418.494 -2857.81 414.032C-2899.74 415.1 -2941.61 422.04 -2981.69 432.193C-3083.85 458.116 -3229.11 536.774 -3181.92 646.62C-3164.19 687.847 -3126.43 720.489 -3075.86 727.479V777.511ZM-2786.43 418.421C-2736.87 426.268 -2685.11 445.987 -2662.8 487.561C-2655.82 500.578 -2654.25 507.291 -2660.37 520.642C-2665.86 532.583 -2673.99 543.449 -2683.9 552.943C-2704.54 572.783 -2733.26 586.32 -2764.4 586.987C-2793.89 587.58 -2821.84 576.455 -2842.73 558.691C-2858.52 545.266 -2880.94 519.937 -2878.56 499.429C-2875.58 474.062 -2845.12 449.772 -2822.74 436.236C-2811.31 429.332 -2799.1 423.483 -2786.43 418.421ZM158.826 16.6181C154.809 63.9849 139.268 109.414 105.458 149.641C69.9734 191.881 -3.80347 234.64 -62.4338 199.743C-83.3672 187.245 -99.4502 165.847 -92.9404 143.485C-85.5371 118.118 -68.6885 94.2723 -47.3296 75.9894C7.26611 29.251 83.6489 12.153 158.826 16.6181Z" fill="#FFEEF3"/>
<path opacity="0.5" fill-rule="evenodd" clip-rule="evenodd" d="M14.6623 98.1797C11.813 101.121 12.6814 105.988 16.3719 107.763L26.7814 112.766C31.0463 114.816 35.8951 111.353 35.3394 106.654L34.6546 100.863C34.3265 98.0891 32.1274 95.9084 29.3507 95.6036L21.25 94.7145C19.408 94.5123 17.5758 95.1727 16.2863 96.5036L14.6623 98.1797Z" fill="#FFEEF3"/>
<path opacity="0.5" fill-rule="evenodd" clip-rule="evenodd" d="M404.341 360.34C406.815 360.34 408.82 362.343 408.82 364.812C408.82 367.282 406.815 369.285 404.341 369.285C401.868 369.285 399.862 367.282 399.862 364.812C399.862 362.343 401.868 360.34 404.341 360.34Z" fill="#FFEEF3"/>
<path opacity="0.5" fill-rule="evenodd" clip-rule="evenodd" d="M51.5078 417.537C52.5387 421.268 49.8191 424.984 45.951 425.13L32.4426 425.641C27.9868 425.809 24.9107 421.23 26.751 417.169L31.3693 406.976C32.7122 404.012 36.1728 402.658 39.17 403.925L46.2064 406.898C47.8957 407.612 49.1658 409.06 49.6542 410.827L51.5078 417.537Z" fill="#FFEEF3"/>
<path opacity="0.5" d="M398.501 251.806C398.501 251.807 398.501 251.806 398.501 251.806L396.878 258.835C396.426 260.794 397.106 262.836 398.572 264.213C399.086 264.696 399.628 265.221 400.142 265.744C401.616 267.244 401.58 269.517 399.976 270.877C398.479 272.146 396.775 273.219 395.25 274.178C393.034 275.573 391.197 276.729 390.926 277.905C390.796 278.469 390.643 279.134 390.48 279.839C390.423 280.039 389.146 284.587 388.219 289.652C387.775 292.074 390.509 294.584 393.394 297.233C396.66 300.231 400.118 303.406 399.378 306.831C399.227 307.488 399.196 307.623 399.365 306.891C399.37 306.871 399.374 306.851 399.378 306.831C399.568 306.01 399.945 304.372 400.356 302.589C401.017 299.719 401.765 296.474 401.952 295.66C402.12 294.933 399.997 292.605 397.532 289.901C395.459 287.627 393.144 285.088 391.745 283.012C391.692 282.933 391.703 282.827 391.772 282.761C392.229 282.323 393.267 281.843 394.502 281.273C397.178 280.037 400.775 278.376 401.37 275.792C402.147 272.423 403.373 267.095 403.628 265.986C403.63 265.977 403.612 265.976 403.609 265.985C403.991 264.786 404.331 263.453 404.341 262.485C404.377 258.301 398.585 251.893 398.502 251.802C398.5 251.8 398.501 251.804 398.501 251.806Z" fill="#FFEEF3"/>
<path opacity="0.5" d="M46.9323 172.247C46.9324 172.247 46.9322 172.247 46.9323 172.247L49.2387 165.412C49.8817 163.507 51.5323 162.126 53.5025 161.723C54.1937 161.581 54.9306 161.419 55.6422 161.244C57.6838 160.74 58.846 158.786 58.1944 156.787C57.5861 154.921 56.6983 153.114 55.9038 151.497C54.7491 149.147 53.7919 147.199 54.178 146.055C54.363 145.507 54.5813 144.861 54.8128 144.175C54.8698 143.975 56.169 139.433 58.0371 134.635C58.9306 132.34 62.5751 131.638 66.4204 130.897C70.7734 130.058 75.3836 129.17 76.5514 125.866C76.7673 125.227 76.8115 125.097 76.5712 125.808C76.5647 125.828 76.5581 125.847 76.5514 125.866C76.2815 126.664 75.7433 128.257 75.1576 129.99C74.2145 132.781 73.1484 135.936 72.8808 136.726C72.6416 137.433 69.6128 138.301 66.0958 139.31C63.1381 140.157 59.8351 141.104 57.5555 142.137C57.4683 142.177 57.4223 142.273 57.4464 142.366C57.6055 142.978 58.2378 143.931 58.9895 145.064C60.6186 147.52 62.8088 150.822 61.9603 153.334C60.8537 156.609 59.1015 161.788 58.7369 162.866C58.7337 162.875 58.7184 162.867 58.7206 162.857C58.4162 164.078 58.006 165.392 57.5071 166.221C55.3424 169.801 47.049 172.217 46.9305 172.252C46.9286 172.252 46.9312 172.249 46.9323 172.247Z" fill="#FFEEF3"/>
<path opacity="0.5" fill-rule="evenodd" clip-rule="evenodd" d="M440.223 17.1758C444.073 16.7767 447.288 20.0738 446.792 23.9128L445.06 37.3193C444.488 41.7415 439.464 44.0174 435.763 41.5304L426.475 35.2889C423.774 33.4741 423.012 29.8372 424.757 27.0909L428.854 20.6437C429.838 19.0958 431.475 18.0827 433.299 17.8936L440.223 17.1758Z" fill="#FFEEF3"/>
<path opacity="0.5" fill-rule="evenodd" clip-rule="evenodd" d="M37.3411 279.34C39.8147 279.34 41.8205 281.343 41.8205 283.812C41.8205 286.282 39.8147 288.285 37.3411 288.285C34.8676 288.285 32.8618 286.282 32.8618 283.812C32.8618 281.343 34.8676 279.34 37.3411 279.34Z" fill="#FFEEF3"/>
<path opacity="0.5" fill-rule="evenodd" clip-rule="evenodd" d="M81.0667 451.54C83.5402 451.54 85.5461 453.543 85.5461 456.012C85.5461 458.482 83.5402 460.484 81.0667 460.484C78.5932 460.484 76.5874 458.482 76.5874 456.012C76.5874 453.543 78.5932 451.54 81.0667 451.54Z" fill="#FFEEF3"/>
<path opacity="0.5" fill-rule="evenodd" clip-rule="evenodd" d="M53.5262 288.285C58.4486 288.285 62.4402 292.27 62.4402 297.184C62.4402 302.099 58.4486 306.084 53.5262 306.084C48.6039 306.084 44.6123 302.099 44.6123 297.184C44.6123 292.27 48.6039 288.285 53.5262 288.285Z" fill="#FFEEF3"/>
<path opacity="0.5" fill-rule="evenodd" clip-rule="evenodd" d="M435.002 221.256C439.925 221.256 443.916 225.242 443.916 230.156C443.916 235.07 439.925 239.056 435.002 239.056C430.08 239.056 426.088 235.07 426.088 230.156C426.088 225.242 430.08 221.256 435.002 221.256Z" fill="#FFEEF3"/>
<path fill-rule="evenodd" clip-rule="evenodd" d="M437.988 54.3438L440.659 62.4149C422.611 67.572 412.271 73.9862 406.852 78.3407C407.988 78.44 409.186 78.5116 410.372 78.5824H410.372C413.875 78.7917 417.271 78.9946 418.662 79.8871C421.785 81.8902 423.678 88.706 423.848 89.3388C425.201 93.0307 425.762 98.1086 420.758 101.349C415.631 104.668 413.764 108.193 413.092 110.507C417.572 116.26 434.355 112.178 434.355 112.178L437.568 121.89C437.568 121.89 422.709 124.227 417.568 121.527C414.785 120.065 413.409 116.27 412.732 113.096V113.099L412.732 113.094L412.731 113.09C407.735 101.681 411.346 98.8425 416.447 94.8334L416.447 94.833L416.448 94.8326C416.74 94.6028 417.037 94.3692 417.338 94.1298C420.245 91.8194 421.243 89.3514 421.534 87.5232C418.759 86.3932 414.48 86.6831 410.801 86.9325C408.276 87.1036 406.034 87.2556 404.753 86.9163C403.396 86.5585 402.435 85.0738 401.76 83.3078C401.752 83.3186 401.748 83.324 401.748 83.324L401.745 83.3126C401.678 83.1103 401.612 82.912 401.548 82.7175C401.522 82.6396 401.496 82.5613 401.47 82.4828C398.533 73.566 398.658 72.7172 410.171 65.6676C422.174 58.3218 437.988 54.3438 437.988 54.3438Z" fill="#FF8BAA"/>
<path fill-rule="evenodd" clip-rule="evenodd" d="M396.735 437.081L398.502 429.54C410.787 430.085 419.23 427.475 424.057 425.269C423.456 424.877 422.808 424.491 422.167 424.11C420.274 422.982 418.439 421.889 418.015 420.758C417.065 418.218 418.762 411.948 418.922 411.369C419.657 407.885 421.401 403.445 425.542 402.068C429.784 400.656 432.269 398.187 433.587 396.416C433.392 390.342 422.258 389.233 422.258 389.233L424.385 380.161C424.385 380.161 433.724 382.221 435.532 385.896C436.51 387.885 435.747 391.463 434.841 394.327L434.842 394.325L434.841 394.328L434.839 394.333C433.03 405.322 429.839 406.739 425.332 408.739C425.073 408.854 424.81 408.971 424.543 409.091C421.964 410.253 420.399 412.066 419.492 413.531C420.601 415.238 423.135 416.154 425.314 416.943C426.809 417.483 428.137 417.964 428.722 418.598C429.344 419.268 429.284 420.783 428.948 422.458C428.957 422.451 428.961 422.447 428.961 422.447L428.959 422.458C428.914 422.648 428.87 422.834 428.827 423.017C428.811 423.087 428.795 423.158 428.778 423.228C426.817 431.559 426.404 432.241 417.039 435.069C407.28 438.014 396.735 437.081 396.735 437.081Z" fill="#FF8BAA"/>
<path fill-rule="evenodd" clip-rule="evenodd" d="M55.1808 330.325L50.5253 335.148C61.5882 344.978 66.7448 353.069 69.1078 358.014C68.2662 357.697 67.3907 357.338 66.5242 356.984C63.963 355.935 61.4808 354.92 60.1873 355.078C57.2849 355.435 53.6124 359.629 53.2734 360.023C51.0509 362.184 48.9172 365.601 51.3662 369.613C53.875 373.723 53.9977 376.866 53.6846 378.739C48.5359 381.297 38.0042 372.663 38.0042 372.663L32.4036 378.466C32.4036 378.466 42.1634 385.203 46.7389 385.041C49.2159 384.953 51.4902 382.727 53.0553 380.703L53.0546 380.704L53.056 380.702L53.059 380.698C60.5065 374.298 58.9102 371.047 56.6555 366.456L56.6555 366.456L56.6555 366.456C56.5261 366.192 56.3946 365.925 56.2624 365.651C54.9862 363.017 55.1201 360.922 55.5378 359.523C57.8955 359.668 60.837 361.336 63.3663 362.77L63.3663 362.77C65.1021 363.755 66.6437 364.629 67.6692 364.825C68.7561 365.035 69.9462 364.308 71.0292 363.284C71.031 363.294 71.0318 363.299 71.0318 363.299L71.0384 363.292C71.1525 363.174 71.2645 363.058 71.3743 362.944C71.4246 362.893 71.4746 362.841 71.5243 362.788C76.6505 357.463 76.8487 356.813 71.079 347.875C65.0593 338.555 55.1808 330.325 55.1808 330.325Z" fill="#FF8BAA"/>
<path fill-rule="evenodd" clip-rule="evenodd" d="M67.0596 116.375L59.9804 109.173C68.4098 96.2806 70.9559 85.3263 71.6347 78.5613C70.8239 78.936 69.9914 79.3649 69.1675 79.7893C66.732 81.0439 64.3716 82.2598 62.8703 81.9233C59.5016 81.1684 53.7634 74.9374 53.2314 74.3533C49.9075 71.1138 46.1874 66.1125 47.3296 60.6705C48.4997 55.0955 47.3973 50.6765 46.3106 48.0092C39.5758 43.9565 31.2656 55.2101 31.2656 55.2101L22.7486 46.5429C22.7486 46.5429 30.9482 37.8965 36.1013 38.5232C38.8909 38.8625 42.2981 42.1985 44.8367 45.1873L44.8355 45.1854L44.8378 45.1886L44.8428 45.1944C55.6491 54.8629 55.155 59.3054 54.4571 65.5803C54.4171 65.9404 54.3764 66.3065 54.3371 66.68C53.9562 70.2825 54.9309 73.2465 55.9468 75.2539C58.5119 75.2548 61.1261 73.1599 63.374 71.3586C64.9166 70.1224 66.2867 69.0244 67.35 68.8371C68.4763 68.6363 70.0864 69.7639 71.6947 71.3017C71.6926 71.2873 71.6915 71.2801 71.6915 71.2801L71.7015 71.2902C71.8828 71.4747 72.0605 71.6556 72.2347 71.8329C72.2958 71.8947 72.3569 71.9569 72.4178 72.0195C80.2405 79.9926 80.7208 80.9154 77.824 93.023C74.8028 105.636 67.0596 116.375 67.0596 116.375Z" fill="#FF8BAA"/>
<path d="M392.347 380.974C392.67 380.908 392.939 380.687 393.067 380.385L394.331 377.41C394.655 376.648 395.712 376.587 396.121 377.308L397.713 380.112C397.875 380.398 398.167 380.585 398.494 380.614L401.716 380.9C402.541 380.973 402.925 381.96 402.365 382.571L400.187 384.95C399.965 385.193 399.876 385.53 399.95 385.85L400.676 388.995C400.863 389.802 400.043 390.473 399.288 390.13L396.351 388.796C396.051 388.659 395.703 388.68 395.421 388.849L392.656 390.514C391.946 390.942 391.054 390.37 391.146 389.547L391.504 386.339C391.54 386.013 391.414 385.689 391.166 385.474L388.729 383.356C388.104 382.813 388.373 381.788 389.185 381.622L392.347 380.974Z" fill="#FF8BAA"/>
<path d="M440.181 297.065C440.484 296.938 440.705 296.67 440.772 296.348L441.433 293.184C441.602 292.373 442.627 292.108 443.169 292.735L445.276 295.176C445.491 295.425 445.814 295.552 446.14 295.517L449.356 295.17C450.179 295.081 450.748 295.975 450.318 296.683L448.644 299.441C448.473 299.722 448.452 300.07 448.587 300.37L449.911 303.313C450.251 304.069 449.577 304.886 448.77 304.697L445.629 303.959C445.309 303.884 444.972 303.971 444.728 304.192L442.339 306.364C441.726 306.921 440.74 306.534 440.67 305.708L440.397 302.493C440.369 302.165 440.182 301.873 439.897 301.709L437.095 300.106C436.376 299.695 436.441 298.637 437.205 298.316L440.181 297.065Z" fill="#FF8BAA"/>
<path d="M393.928 170.31C394.17 170.088 394.288 169.761 394.243 169.436L393.799 166.235C393.686 165.414 394.562 164.819 395.283 165.227L398.089 166.816C398.375 166.977 398.722 166.989 399.017 166.845L401.928 165.436C402.674 165.075 403.51 165.725 403.344 166.536L402.697 169.696C402.631 170.019 402.728 170.353 402.956 170.591L405.194 172.916C405.768 173.513 405.409 174.509 404.586 174.603L401.38 174.966C401.053 175.003 400.765 175.199 400.61 175.49L399.092 178.339C398.703 179.07 397.644 179.037 397.3 178.284L395.96 175.348C395.823 175.049 395.549 174.836 395.225 174.779L392.047 174.213C391.231 174.068 390.936 173.05 391.547 172.491L393.928 170.31Z" fill="#FF8BAA"/>
<path d="M85.3784 31.2938C85.6208 31.0718 85.7387 30.7448 85.6935 30.4192L85.2501 27.2179C85.1365 26.3974 86.0125 25.8024 86.7333 26.2104L89.5396 27.799C89.8255 27.9608 90.1726 27.972 90.4682 27.8288L93.3788 26.4191C94.1244 26.0579 94.9605 26.7081 94.7944 27.5196L94.1473 30.6799C94.0813 31.0024 94.1782 31.3367 94.4065 31.5739L96.6445 33.8991C97.2191 34.4961 96.8599 35.4929 96.0366 35.5862L92.8306 35.9496C92.5034 35.9867 92.2155 36.1825 92.0607 36.473L90.5428 39.3219C90.1533 40.053 89.0946 40.0206 88.7506 39.267L87.4102 36.3314C87.2738 36.0326 86.9993 35.8198 86.6759 35.7622L83.4976 35.1963C82.682 35.051 82.3866 34.0338 82.9976 33.4743L85.3784 31.2938Z" fill="#FF8BAA"/>
<path d="M55.0805 260.139C55.323 259.917 55.4408 259.59 55.3957 259.264L54.9523 256.063C54.8386 255.243 55.7146 254.648 56.4354 255.056L59.2418 256.644C59.5276 256.806 59.8747 256.817 60.1703 256.674L63.0809 255.264C63.8265 254.903 64.6627 255.553 64.4965 256.365L63.8495 259.525C63.7834 259.848 63.8804 260.182 64.1086 260.419L66.3466 262.744C66.9212 263.341 66.5621 264.338 65.7387 264.431L62.5327 264.795C62.2056 264.832 61.9176 265.028 61.7628 265.318L60.2449 268.167C59.8554 268.898 58.7968 268.866 58.4527 268.112L57.1124 265.177C56.9759 264.878 56.7014 264.665 56.378 264.607L53.1998 264.041C52.3841 263.896 52.0887 262.879 52.6997 262.319L55.0805 260.139Z" fill="#FF8BAA"/>
</g>
<defs>
<clipPath id="clip0_3766_7805">
<rect width="480" height="472" fill="white" transform="translate(-0.178711)"/>
</clipPath>
</defs>
</svg>