<?xml version="1.0" encoding="utf-8"?>
<svg xmlns="http://www.w3.org/2000/svg" width="480" height="472" viewBox="0 0 480 472" fill="none">
<g clip-path="url(#clip0_3766_7845)">
<rect width="480" height="472" fill="#FFCDDA"/>
<path opacity="0.5" fill-rule="evenodd" clip-rule="evenodd" d="M-2424.38 -594.772C-2526.73 -579.944 -2550.26 -450.455 -2530.57 -366.384C-2503.67 -251.457 -2376.8 -199.649 -2271.38 -184.667C-2238.68 -180.023 -2203.74 -179.3 -2170.51 -185.455C-2150.27 -176.342 -2128.79 -169.713 -2108.4 -164.418C-1960.64 -126.035 -1804.53 -111.794 -1652.17 -115.762C-1354.65 -123.476 -1069.4 -214.001 -790.656 -310.756C-765.019 -319.654 -739.4 -328.607 -713.779 -337.561C-599.932 -377.348 -486.071 -417.14 -370.604 -452.014C-225.515 -495.812 -76.0098 -535.382 76.2407 -540.314C211.051 -544.69 349.498 -519.138 465.012 -446.674C570.693 -380.365 653.628 -273.152 666.875 -146.395C678.972 -30.5773 616.372 83.571 512.175 135.12C480.254 150.903 444.067 161.419 407.206 165.221C405.509 137.704 401.513 110.227 394.694 82.9035C380.667 26.6824 353.765 -29.1681 302.891 -60.468C261.368 -86.0198 203.258 -87.9482 177.061 -39.9228C154.462 1.5014 161.624 61.6908 180.141 103.263C200.252 148.396 238.324 180.067 283.595 198.572C319.641 213.279 358.431 218.723 396.953 216.347C392.535 292.582 368.222 370.8 347.123 438.18C307.975 563.195 266.934 700.151 293.948 836.698C314.506 940.685 380.074 1046.04 493.028 1062.73C595.258 1077.83 703.982 1017.19 751.59 926.89C803.021 829.281 787.992 700.336 733.445 607.4C708.442 564.817 674.467 528.163 633.872 500.352V549.762C715.007 606.473 783.373 708.733 769.624 809.441C754.744 918.434 661.345 996.091 559.153 1012.22C447.015 1029.95 353.913 958.116 315.841 855.723C272.237 738.412 310.949 616.187 347.254 501.557C350.465 491.421 353.656 481.344 356.771 471.334C382.498 388.723 405.019 302.242 407.871 215.465C464.969 209.759 520.848 187.103 565.646 152.216C656.15 81.7169 685.391 -36.066 678.192 -146.098C670.437 -264.548 617.114 -373.653 526.758 -450.902C310.832 -635.475 6.92432 -603.878 -248.15 -536.976C-406.543 -495.42 -560.996 -441.406 -715.459 -387.388C-829.101 -347.646 -942.748 -307.902 -1057.98 -273.115C-1193.86 -232.099 -1332.2 -197.98 -1473.09 -179.771C-1620.04 -160.784 -1769.1 -160.264 -1916.12 -178.733C-1977.86 -186.472 -2040.69 -196.124 -2101.15 -211.971C-2066.21 -235.464 -2047.51 -272.252 -2046.81 -316.542C-2045.99 -368.758 -2067.33 -421.753 -2116.9 -445.079C-2166.48 -468.406 -2221.51 -441.519 -2246.52 -395.645C-2271.53 -349.77 -2270.6 -288.802 -2244.33 -245.523C-2241.27 -240.492 -2237.89 -235.755 -2234.21 -231.293C-2270.78 -232.361 -2307.29 -239.301 -2342.25 -249.454C-2431.35 -275.377 -2558.03 -354.035 -2516.88 -463.881C-2501.42 -505.108 -2468.49 -537.75 -2424.38 -544.741V-594.772ZM-2171.96 -235.682C-2128.74 -243.529 -2083.6 -263.248 -2064.14 -304.823C-2058.05 -317.84 -2056.68 -324.552 -2062.02 -337.903C-2066.81 -349.844 -2073.89 -360.71 -2082.54 -370.204C-2100.54 -390.045 -2125.59 -403.581 -2152.75 -404.248C-2178.46 -404.842 -2202.84 -393.716 -2221.06 -375.952C-2234.83 -362.527 -2254.38 -337.198 -2252.31 -316.69C-2249.71 -291.324 -2223.14 -267.033 -2203.62 -253.497C-2193.66 -246.593 -2183.01 -240.744 -2171.96 -235.682ZM396.71 166.121C393.206 118.754 379.652 73.3245 350.165 33.0981C319.218 -9.14203 254.874 -51.9013 203.741 -17.0041C185.484 -4.50635 171.458 16.8917 177.135 39.2542C183.592 64.6206 198.286 88.4664 216.914 106.749C264.529 153.488 331.145 170.586 396.71 166.121Z" fill="#FFEEF3"/>
<path opacity="0.5" fill-rule="evenodd" clip-rule="evenodd" d="M450.867 314.59C453.716 311.649 452.847 306.782 449.157 305.008L438.747 300.004C434.483 297.954 429.634 301.417 430.189 306.116L430.874 311.907C431.202 314.681 433.401 316.862 436.178 317.166L444.279 318.056C446.121 318.258 447.953 317.597 449.243 316.266L450.867 314.59Z" fill="#FFEEF3"/>
<path opacity="0.5" fill-rule="evenodd" clip-rule="evenodd" d="M31.9196 133.237C29.4461 133.237 27.4403 131.235 27.4403 128.765C27.4403 126.296 29.4461 124.293 31.9196 124.293C34.3931 124.293 36.3989 126.296 36.3989 128.765C36.3989 131.235 34.3931 133.237 31.9196 133.237Z" fill="#FFEEF3"/>
<path opacity="0.5" fill-rule="evenodd" clip-rule="evenodd" d="M391.571 26.0726C390.54 22.3415 393.26 18.6251 397.128 18.479L410.636 17.9688C415.092 17.8006 418.168 22.3792 416.328 26.4408L411.709 36.6338C410.366 39.5977 406.906 40.951 403.909 39.6844L396.872 36.711C395.183 35.9971 393.913 34.5498 393.424 32.782L391.571 26.0726Z" fill="#FFEEF3"/>
<path opacity="0.5" d="M75.5908 244.198C75.5908 244.197 75.5908 244.198 75.5908 244.198L77.2137 237.169C77.6662 235.21 76.9856 233.168 75.5201 231.791C75.006 231.307 74.4635 230.783 73.9498 230.26C72.4762 228.76 72.5121 226.487 74.1158 225.127C75.6128 223.858 77.3167 222.785 78.8413 221.826C81.0574 220.431 82.8944 219.275 83.1658 218.099C83.2959 217.535 83.4493 216.87 83.612 216.165C83.6684 215.965 84.9457 211.417 85.8729 206.352C86.3164 203.93 83.5823 201.42 80.6977 198.771C77.4322 195.773 73.9738 192.598 74.7133 189.172C74.8646 188.516 74.8954 188.381 74.7265 189.113C74.722 189.133 74.7176 189.153 74.7133 189.172C74.5241 189.994 74.1466 191.632 73.7358 193.415C73.0744 196.285 72.3265 199.53 72.1395 200.344C71.9722 201.071 74.095 203.399 76.56 206.103C78.6329 208.377 80.9478 210.916 82.3463 212.991C82.3998 213.071 82.3886 213.177 82.3195 213.243C81.8628 213.681 80.8244 214.16 79.5898 214.731C76.9142 215.967 73.3172 217.628 72.7217 220.212C71.9451 223.581 70.7193 228.909 70.4642 230.018C70.462 230.027 70.4796 230.028 70.4827 230.019C70.1012 231.218 69.7609 232.551 69.7505 233.519C69.7148 237.703 75.5072 244.111 75.5899 244.202C75.5913 244.204 75.5908 244.2 75.5908 244.198Z" fill="#FFEEF3"/>
<path opacity="0.5" d="M431.047 70.3016C431.047 70.3014 431.047 70.3017 431.047 70.3016L432.182 63.178C432.499 61.192 433.896 59.5553 435.771 58.829C436.429 58.5742 437.129 58.292 437.801 58.0003C439.73 57.1634 440.551 55.043 439.575 53.1803C438.664 51.4417 437.488 49.8079 436.435 48.3462C434.905 46.2215 433.636 44.4602 433.826 43.2683C433.917 42.6971 434.025 42.0232 434.139 41.3085C434.162 41.1019 434.685 36.4068 435.728 31.3646C436.226 28.953 439.703 27.6531 443.371 26.2815C447.523 24.7289 451.921 23.0845 452.521 19.632C452.628 18.9665 452.65 18.8304 452.531 19.5723C452.528 19.5923 452.525 19.6122 452.521 19.632C452.388 20.4643 452.123 22.1243 451.835 23.9309C451.37 26.8397 450.844 30.1282 450.712 30.9524C450.594 31.6892 447.753 33.0501 444.453 34.6305C441.678 35.9595 438.579 37.4437 436.503 38.8422C436.424 38.8957 436.395 38.998 436.434 39.0854C436.693 39.6627 437.475 40.4971 438.405 41.4893C440.421 43.6394 443.131 46.5301 442.713 49.1481C442.168 52.562 441.303 57.9606 441.123 59.084C441.122 59.0937 441.105 59.0878 441.106 59.078C441.009 60.3325 440.824 61.6965 440.47 62.5973C438.932 66.4882 431.157 70.2527 431.046 70.3063C431.045 70.3072 431.047 70.3034 431.047 70.3016Z" fill="#FFEEF3"/>
<path opacity="0.5" fill-rule="evenodd" clip-rule="evenodd" d="M41.8201 379.338C37.9699 378.938 34.7548 382.236 35.2509 386.074L36.0138 391.978C36.5852 396.401 41.6098 398.676 45.3108 396.189L49.1476 393.611C51.8484 391.796 52.6104 388.159 50.8652 385.413L48.9273 382.364C47.9437 380.816 46.3062 379.803 44.482 379.613L41.8201 379.338Z" fill="#FFEEF3"/>
<path opacity="0.5" fill-rule="evenodd" clip-rule="evenodd" d="M447.261 265.62C444.788 265.62 442.782 263.618 442.782 261.148C442.782 258.678 444.788 256.676 447.261 256.676C449.735 256.676 451.741 258.678 451.741 261.148C451.741 263.618 449.735 265.62 447.261 265.62Z" fill="#FFEEF3"/>
<path opacity="0.5" fill-rule="evenodd" clip-rule="evenodd" d="M431.076 256.676C426.154 256.676 422.162 252.691 422.162 247.776C422.162 242.862 426.154 238.877 431.076 238.877C435.999 238.877 439.99 242.862 439.99 247.776C439.99 252.691 435.999 256.676 431.076 256.676Z" fill="#FFEEF3"/>
<path opacity="0.5" fill-rule="evenodd" clip-rule="evenodd" d="M51.8021 155.49C49.3151 155.49 47.2984 153.477 47.2984 150.994C47.2984 148.511 49.3151 146.497 51.8021 146.497C54.289 146.497 56.3057 148.511 56.3057 150.994C56.3057 153.477 54.289 155.49 51.8021 155.49Z" fill="#FFEEF3"/>
<path fill-rule="evenodd" clip-rule="evenodd" d="M82.4812 345.531L83.6884 338.383C60.1228 342.257 45.728 341.901 37.928 340.976C39.3027 340.416 40.7598 339.851 42.2019 339.292C46.4642 337.639 50.5951 336.037 52.0787 334.778C55.4084 331.953 55.9813 326.072 56.0276 325.528C56.7409 322.202 56.1212 318.183 49.1198 317.91C41.9474 317.63 38.7368 315.804 37.3124 314.37C41.346 308.174 63.0763 304.04 63.0763 304.04L64.5267 295.439C64.5267 295.439 45.6183 300.049 39.9819 304.255C36.9305 306.532 36.2151 309.945 36.2007 312.596L36.2001 312.594L36.2007 312.598L36.2007 312.601C32.991 323.227 38.1723 323.797 45.4909 324.601L45.4911 324.601C45.911 324.647 46.3379 324.694 46.7706 324.744C50.9482 325.221 52.8149 326.632 53.6454 327.868C50.519 329.895 45.1726 331.507 40.5755 332.894C37.4206 333.845 34.6187 334.691 33.1293 335.49C31.5492 336.336 30.7484 337.852 30.3727 339.455C30.3605 339.45 30.3544 339.448 30.3544 339.448L30.3527 339.458C30.3228 339.635 30.2934 339.809 30.2648 339.98C30.2519 340.053 30.2398 340.125 30.2284 340.197C28.9124 348.084 29.2884 348.663 45.2883 348.99C61.9719 349.328 82.4812 345.531 82.4812 345.531Z" fill="#FF8BAA"/>
<path fill-rule="evenodd" clip-rule="evenodd" d="M31.1158 25.1347L38.3516 27.8947C36.1686 39.9967 37.625 48.7126 39.1653 53.7917C39.6348 53.2478 40.1035 52.6577 40.5675 52.0738C41.9385 50.3481 43.2671 48.6756 44.4448 48.4073C47.0884 47.805 53.0751 50.3262 53.6275 50.5626C56.9822 51.7567 61.1484 54.079 61.9597 58.3668C62.7909 62.7598 64.9058 65.553 66.4844 67.096C72.5296 67.7156 75.1181 56.8294 75.1181 56.8294L83.8242 60.1515C83.8242 60.1515 80.5337 69.1313 76.6498 70.4307C74.5471 71.1342 71.1034 69.8992 68.3869 68.6183L68.3887 68.6195L68.3854 68.6176L68.3812 68.6156C57.7327 65.3527 56.7559 62.0008 55.3762 57.2663C55.297 56.9946 55.2165 56.7184 55.1328 56.4374C54.3265 53.7261 52.7393 51.9324 51.4092 50.8383C49.5691 51.7082 48.3217 54.0967 47.2492 56.1506C46.5131 57.5601 45.8594 58.812 45.1529 59.3071C44.4051 59.8333 42.9121 59.5713 41.2974 59.0147C41.3032 59.0242 41.3061 59.029 41.3061 59.029L41.2959 59.0251C41.1134 58.9555 40.9344 58.8872 40.7589 58.8201C40.6916 58.7948 40.6242 58.769 40.5568 58.7429C32.5632 55.685 31.9421 55.1841 30.3923 45.5256C28.7799 35.4599 31.1158 25.1347 31.1158 25.1347Z" fill="#FF8BAA"/>
<path fill-rule="evenodd" clip-rule="evenodd" d="M432.034 141.79L436.69 136.967C425.627 127.137 420.47 119.046 418.107 114.101C418.949 114.419 419.824 114.777 420.691 115.132C423.252 116.18 425.734 117.196 427.028 117.037C429.93 116.68 433.602 112.486 433.941 112.093C436.164 109.931 438.298 106.514 435.849 102.502C433.34 98.3918 433.217 95.2489 433.53 93.3758C438.679 90.8181 449.211 99.4526 449.211 99.4526L454.811 93.6489C454.811 93.6489 445.051 86.9118 440.476 87.0741C437.999 87.1619 435.725 89.3885 434.16 91.4125L434.16 91.4112L434.159 91.4134L434.156 91.4173C426.708 97.8175 428.305 101.068 430.559 105.659L430.559 105.659L430.559 105.659C430.689 105.923 430.82 106.191 430.952 106.464C432.229 109.099 432.095 111.193 431.677 112.592C429.319 112.447 426.378 110.779 423.849 109.345L423.849 109.345C422.113 108.361 420.571 107.486 419.546 107.29C418.459 107.081 417.269 107.807 416.186 108.832C416.184 108.821 416.183 108.816 416.183 108.816L416.176 108.823C416.062 108.941 415.95 109.057 415.841 109.171C415.79 109.223 415.74 109.275 415.691 109.327C410.564 114.652 410.366 115.302 416.136 124.24C422.156 133.561 432.034 141.79 432.034 141.79Z" fill="#FF8BAA"/>
<path fill-rule="evenodd" clip-rule="evenodd" d="M419.015 339.939L423.881 346.897C415.096 356.412 411.459 365.14 409.954 370.654C410.678 370.456 411.428 370.217 412.17 369.98C414.364 369.279 416.491 368.599 417.689 369.088C420.375 370.182 424.262 376.143 424.625 376.706C426.93 379.855 429.318 384.52 427.613 388.874C425.866 393.333 426.164 397.15 426.694 399.513C431.713 403.812 440.171 395.639 440.171 395.639L446.025 404.012C446.025 404.012 438.022 410.038 433.837 408.801C431.571 408.131 429.211 404.89 427.522 402.058L427.523 402.06L427.522 402.057L427.519 402.052C419.906 392.53 420.934 388.915 422.387 383.81C422.471 383.517 422.555 383.219 422.64 382.915C423.458 379.981 423.063 377.388 422.5 375.582C420.373 375.224 417.914 376.596 415.799 377.777C414.348 378.587 413.059 379.306 412.151 379.313C411.19 379.323 410.012 378.164 408.892 376.665C408.892 376.677 408.892 376.683 408.892 376.683L408.885 376.673C408.76 376.494 408.637 376.318 408.516 376.145C408.476 376.088 408.436 376.031 408.396 375.973C403.018 368.269 402.747 367.438 406.837 357.801C411.099 347.764 419.015 339.939 419.015 339.939Z" fill="#FF8BAA"/>
<path d="M83.5353 112.114C83.2133 112.18 82.9443 112.4 82.8157 112.703L81.5521 115.678C81.2282 116.44 80.171 116.501 79.7621 115.78L78.17 112.976C78.0078 112.69 77.7157 112.503 77.3885 112.474L74.1671 112.188C73.3419 112.115 72.9583 111.128 73.5177 110.517L75.6959 108.138C75.9182 107.895 76.0068 107.558 75.9327 107.237L75.2066 104.093C75.0202 103.286 75.8402 102.615 76.5946 102.958L79.5322 104.292C79.8319 104.428 80.1795 104.408 80.4616 104.239L83.2271 102.574C83.9368 102.146 84.8285 102.718 84.7367 103.541L84.3791 106.748C84.3427 107.075 84.469 107.398 84.7169 107.614L87.1533 109.732C87.7786 110.275 87.5096 111.3 86.698 111.466L83.5353 112.114Z" fill="#FF8BAA"/>
<path d="M48.3686 229.657C48.0656 229.784 47.8445 230.052 47.7773 230.374L47.1166 233.537C46.9472 234.348 45.922 234.613 45.3807 233.987L43.2734 231.546C43.0588 231.297 42.7357 231.17 42.4092 231.205L39.1938 231.552C38.3701 231.641 37.8018 230.747 38.2316 230.039L39.9053 227.281C40.0761 227 40.0974 226.652 39.9624 226.352L38.6384 223.409C38.2984 222.653 38.9723 221.836 39.779 222.025L42.92 222.763C43.2406 222.838 43.5776 222.751 43.8213 222.529L46.21 220.358C46.823 219.801 47.8089 220.188 47.879 221.013L48.1523 224.229C48.1801 224.556 48.3669 224.849 48.652 225.012L51.4539 226.616C52.173 227.027 52.1085 228.084 51.3448 228.405L48.3686 229.657Z" fill="#FF8BAA"/>
<path d="M87.0503 435.789C86.8079 435.567 86.6901 435.24 86.7352 434.914L87.1786 431.713C87.2922 430.893 86.4163 430.298 85.6954 430.706L82.8891 432.294C82.6032 432.456 82.2562 432.467 81.9605 432.324L79.0499 430.914C78.3043 430.553 77.4682 431.203 77.6343 432.015L78.2814 435.175C78.3474 435.497 78.2505 435.832 78.0222 436.069L75.7843 438.394C75.2096 438.991 75.5688 439.988 76.3921 440.081L79.5981 440.445C79.9253 440.482 80.2132 440.678 80.368 440.968L81.8859 443.817C82.2755 444.548 83.3341 444.516 83.6781 443.762L85.0185 440.827C85.1549 440.528 85.4294 440.315 85.7528 440.257L88.9311 439.691C89.7467 439.546 90.0421 438.529 89.4312 437.969L87.0503 435.789Z" fill="#FF8BAA"/>
<path d="M455.882 434.987C455.639 435.209 455.522 435.536 455.567 435.862L456.01 439.063C456.124 439.884 455.248 440.479 454.527 440.071L451.721 438.482C451.435 438.32 451.088 438.309 450.792 438.452L447.881 439.862C447.136 440.223 446.3 439.573 446.466 438.762L447.113 435.601C447.179 435.279 447.082 434.945 446.854 434.707L444.616 432.382C444.041 431.785 444.4 430.788 445.224 430.695L448.43 430.332C448.757 430.295 449.045 430.099 449.2 429.808L450.717 426.959C451.107 426.228 452.166 426.261 452.51 427.014L453.85 429.95C453.986 430.249 454.261 430.461 454.584 430.519L457.763 431.085C458.578 431.23 458.874 432.247 458.263 432.807L455.882 434.987Z" fill="#FF8BAA"/>
<path d="M467.007 222.415C466.764 222.637 466.647 222.964 466.692 223.29L467.135 226.491C467.249 227.312 466.373 227.907 465.652 227.499L462.846 225.91C462.56 225.748 462.213 225.737 461.917 225.88L459.006 227.29C458.261 227.651 457.425 227.001 457.591 226.189L458.238 223.029C458.304 222.707 458.207 222.372 457.979 222.135L455.741 219.81C455.166 219.213 455.525 218.216 456.349 218.123L459.555 217.759C459.882 217.722 460.17 217.527 460.325 217.236L461.842 214.387C462.232 213.656 463.291 213.688 463.635 214.442L464.975 217.378C465.111 217.676 465.386 217.889 465.709 217.947L468.888 218.513C469.703 218.658 469.999 219.675 469.388 220.235L467.007 222.415Z" fill="#FF8BAA"/>
</g>
<defs>
<clipPath id="clip0_3766_7845">
<rect width="480" height="472" fill="white"/>
</clipPath>
</defs>
</svg>